<svg xmlns="http://www.w3.org/2000/svg" viewBox="0 0 900 520" role="img" aria-labelledby="title">
  <title id="title">DHL</title>
  <rect width="900" height="520" fill="#ffcc00"/>
  <g fill="#d40511">
    <path d="M267 229h81c45 0 67 21 58 56-9 35-42 56-87 56H238zm57 34-14 44h21c17 0 30-8 35-22 4-14-5-22-22-22z"/>
    <path d="M414 229h55l-11 36h50l11-36h55l-35 112h-55l12-39h-50l-12 39h-55z"/>
    <path d="M586 229h55l-24 78h84l-11 34H551z"/>
    <path d="M176 254h81l-7 21h-93zm-23 32h93l-6 20H135zm-24 31h104l-7 21H111zm548-63h95l-7 21h-95zm-10 32h112l-6 20H661zm-10 31h121l-6 21H651z"/>
  </g>
</svg>
