<svg xmlns="http://www.w3.org/2000/svg" viewBox="0 0 640 360" role="img" aria-labelledby="title">
  <title id="title">Klarna</title>
  <rect width="640" height="360" fill="#fff"/>
  <rect x="32" y="76" width="576" height="208" rx="52" fill="#ffb3c7"/>
  <path fill="#0b0b0b" d="M86 134h50v92H86zm86 0h54l-43 46 46 46h-58l-35-39 36-53zm61 46c0-30 22-50 52-50 30 0 52 20 52 50s-22 50-52 50c-30 0-52-20-52-50zm48 0c0 12 8 20 19 20 12 0 20-8 20-20s-8-20-20-20c-11 0-19 8-19 20zm66-47h45v12c7-10 18-15 33-15v42c-21-2-33 6-33 27v27h-45zm89 0h45v10c8-8 19-13 33-13 24 0 40 16 40 45v51h-46v-44c0-13-6-20-17-20s-18 8-18 22v42h-37zm126 70c0-15 11-26 26-26s26 11 26 26-11 26-26 26-26-11-26-26z"/>
</svg>
