<svg xmlns="http://www.w3.org/2000/svg" viewBox="0 0 900 520" role="img" aria-labelledby="title">
  <title id="title">Visa</title>
  <rect width="900" height="520" fill="#fff"/>
  <rect x="70" y="54" width="760" height="78" fill="#0b6ea8"/>
  <rect x="70" y="388" width="760" height="78" fill="#f6b333"/>
  <path fill="#0877b7" d="M268 187h74l-60 180h-72l-35-136c-3-12-7-17-18-23-18-9-47-18-72-23l2-8h114c16 0 29 11 32 27l18 96zm104-10-42 190h-68l42-190zm178 7-9 53c-20-9-39-14-58-14-22 0-34 7-35 18-1 13 17 21 38 32 35 18 62 38 61 77-1 56-49 91-121 91-31 0-62-6-79-15l11-55c17 9 42 19 73 18 24-1 40-8 40-24 0-12-11-20-42-35-30-15-57-35-57-72 0-53 47-89 113-89 27 0 49 6 65 15zm153-7 55 190h-63l-7-28h-83l-14 28h-70l96-175c6-10 17-15 31-15zm-27 110-18-72-36 72z"/>
</svg>
